<?xml version="1.0" encoding="utf-8"?>
<!-- Generator: Adobe Illustrator 16.0.0, SVG Export Plug-In . SVG Version: 6.00 Build 0)  -->
<!DOCTYPE svg PUBLIC "-//W3C//DTD SVG 1.1//EN" "http://www.w3.org/Graphics/SVG/1.1/DTD/svg11.dtd">
<svg version="1.1" id="Layer_1" xmlns="http://www.w3.org/2000/svg" xmlns:xlink="http://www.w3.org/1999/xlink" x="0px" y="0px"
	 width="600px" height="600px" viewBox="0 0 600 600" enable-background="new 0 0 600 600" xml:space="preserve">
<g>
	<rect fill="#2EAED1" width="600" height="600"/>
	<path fill="#E53134" d="M156,240c-8.841,3.859-27.274,12.236-33,20c-6.118,8.296-8.223,29.847-10,40
		c-2.124,12.129-7.027,36.854-5,49c2.356,14.123,15.559,40.436,24,52c7.198,9.861,33,36,33,36s31.097,20.83,42,22
		c8.386,0.9,31-11,31-11s34.133-23.551,43-34c10.272-12.105,23.182-41.873,28-57c4.96-15.573,7.859-48.679,7-65
		c-0.778-14.78-9.438-43.734-16-57c-2.585-5.225-11.146-14.81-16.819-16.146C272.43,216.32,241,232,241,232s-26.881-6.315-36-6
		C192.268,226.439,167.676,234.903,156,240z"/>
	<ellipse fill="#FEF2B9" cx="136" cy="272" rx="7" ry="9"/>
	<ellipse fill="#FEF2B9" cx="120.333" cy="317.894" rx="8.666" ry="10.427"/>
	<ellipse fill="#FEF2B9" cx="129" cy="371.666" rx="7" ry="10"/>
	<ellipse fill="#FEF2B9" cx="155.333" cy="420" rx="5.667" ry="7.933"/>
	<ellipse fill="#FEF2B9" cx="191.127" cy="452.862" rx="7.208" ry="10.804"/>
	<ellipse fill="#FEF2B9" cx="241" cy="442.06" rx="7.999" ry="11.024"/>
	<ellipse fill="#FEF2B9" cx="198.334" cy="419.418" rx="7" ry="6.124"/>
	<ellipse fill="#FEF2B9" cx="176.793" cy="380.5" rx="7.126" ry="10.5"/>
	<ellipse fill="#FEF2B9" cx="167.333" cy="341.667" rx="6.333" ry="9.333"/>
	<ellipse fill="#FEF2B9" cx="171.563" cy="305.334" rx="5.229" ry="9"/>
	<ellipse fill="#FEF2B9" cx="211" cy="321.334" rx="5.333" ry="11"/>
	<ellipse fill="#FEF2B9" cx="211" cy="361.333" rx="5.333" ry="10.333"/>
	<ellipse fill="#FEF2B9" cx="228.667" cy="388.75" rx="7" ry="8.25"/>
	<ellipse fill="#FEF2B9" cx="256" cy="402.333" rx="5" ry="11.333"/>
	<ellipse fill="#FEF2B9" cx="289.667" cy="397.208" rx="7.333" ry="8.458"/>
	<ellipse fill="#FEF2B9" cx="305.167" cy="350.24" rx="5.167" ry="11.426"/>
	<ellipse fill="#FEF2B9" cx="306.447" cy="290.5" rx="5.167" ry="8"/>
	<ellipse fill="#FEF2B9" cx="282.334" cy="323.334" rx="6" ry="9"/>
	<ellipse fill="#FEF2B9" cx="257.667" cy="351.666" rx="6.667" ry="10"/>
	<ellipse fill="#FEF2B9" cx="248.5" cy="305.334" rx="7.5" ry="9"/>
	<ellipse fill="#FEF2B9" cx="289.667" cy="281" rx="6.083" ry="9.5"/>
	<ellipse fill="#FEF2B9" cx="303.667" cy="245.333" rx="6.667" ry="7"/>
	<polygon fill="#55AB47" points="403,600 409,531 409,418 403,327 349,213 306,161 281,161 241,216 241,232 275,211 300,235 
		276,231 255,244 279,256 279,291.5 259,263 225,251 211,291.5 202,256 181,265 156,300 185,243 203,243 161.754,241.031 178,227 
		205,226 215,231 237,180 274,140 313,140 376,214 409,288 431,364.5 437,442 437,452 423,475 450,441 501,405 531,383 547,378 
		568,332 568,306 563,271 572,251 579,259 584,233 592,238 592,214 600,210 600,330 580,332 564,370 600,364.5 600,386 576,389 
		531,405 506,423 467,458 462.019,464.476 437,497 435,523 435,549 434,600 	"/>
</g>
</svg>
