<?xml version="1.0" encoding="utf-8"?>
<!-- Generator: Adobe Illustrator 16.0.0, SVG Export Plug-In . SVG Version: 6.00 Build 0)  -->
<!DOCTYPE svg PUBLIC "-//W3C//DTD SVG 1.1//EN" "http://www.w3.org/Graphics/SVG/1.1/DTD/svg11.dtd">
<svg version="1.1" id="Layer_1" xmlns="http://www.w3.org/2000/svg" xmlns:xlink="http://www.w3.org/1999/xlink" x="0px" y="0px"
	 width="600px" height="600px" viewBox="0 0 600 600" enable-background="new 0 0 600 600" xml:space="preserve">
<g>
	<rect fill="#2EAED1" width="600" height="600"/>
	<rect y="529.564" fill="#218140" width="600" height="70.436"/>
	<polygon fill="#CB9832" points="163.597,342.574 139.599,311 151.598,246.579 219.095,174.583 259.593,117.585 286.591,89.087 
		351.088,89.087 397.586,129.585 439.584,159.583 469.582,194.082 490.581,237.579 481.581,302.076 469.582,312.576 
		330.089,291.577 	"/>
	<polygon fill="#886E2B" points="163.597,344.074 192.096,309.575 244.593,288.576 310.59,269.077 364.587,269.077 432.084,281.077 
		469.582,314.075 446.715,309.134 400.586,306.576 325.589,305 267.092,318.575 204.095,335.074 	"/>
	<polygon fill="#DCD37E" points="211.595,528.564 192.096,495.566 201.845,456.568 232.594,408.57 259.593,371.072 280.591,326.074 
		288.091,285.577 328.589,269.077 378.087,276.577 396.086,336.574 418.585,398.82 418.585,462.568 400.586,512.065 
		370.587,528.564 	"/>
</g>
</svg>
