<?xml version="1.0" encoding="utf-8"?>
<!-- Generator: Adobe Illustrator 16.0.0, SVG Export Plug-In . SVG Version: 6.00 Build 0)  -->
<!DOCTYPE svg PUBLIC "-//W3C//DTD SVG 1.1//EN" "http://www.w3.org/Graphics/SVG/1.1/DTD/svg11.dtd">
<svg version="1.1" id="Layer_1" xmlns="http://www.w3.org/2000/svg" xmlns:xlink="http://www.w3.org/1999/xlink" x="0px" y="0px"
	 width="600px" height="600px" viewBox="0 0 600 600" enable-background="new 0 0 600 600" xml:space="preserve">
<g>
	<rect fill="#2EAED1" width="600" height="600"/>
	<rect y="244" fill="#352A14" width="600" height="356"/>
	<polygon fill="#F19620" points="269,244 244,259 237,280 246,333 247,379 237,435 247,487 260,545 261,513 263,470 283,407 
		301,352 323,291 313,253 300,244 	"/>
	<polygon fill="#218140" points="418,186 409,198 398,193 392,202 389,207 392,221.83 363,221.83 352,208 339,213 318,229 300,244 
		268,244 268,215 259,199 229,191 229,180 242,180 229,172 229,152 237,152 229,119 248.5,119 268,128 280,115 308,124 308,133 
		318,125 336,130 352,136 366,136 379,153 405,151 405,167 400,175 	"/>
	<polygon fill="#2EAED1" points="298,228.667 305.334,210.667 305.334,202.001 324.667,192.001 331.334,198.667 344,198.667 
		316,218.667 	"/>
	<line fill="none" stroke="#DCD37E" stroke-width="4" stroke-miterlimit="10" x1="246" y1="275" x2="255" y2="276"/>
	<line fill="none" stroke="#DCD37E" stroke-width="4" stroke-miterlimit="10" x1="255" y1="306.576" x2="262" y2="306.576"/>
	<line fill="none" stroke="#DCD37E" stroke-width="4" stroke-miterlimit="10" x1="305" y1="269.077" x2="311" y2="269.077"/>
	<line fill="none" stroke="#DCD37E" stroke-width="4" stroke-miterlimit="10" x1="280" y1="259" x2="287" y2="260"/>
	<line fill="none" stroke="#DCD37E" stroke-width="4" stroke-miterlimit="10" x1="267" y1="344.074" x2="280" y2="344.074"/>
	<line fill="none" stroke="#DCD37E" stroke-width="4" stroke-miterlimit="10" x1="250.5" y1="394.5" x2="258.5" y2="394.5"/>
	<line fill="none" stroke="#DCD37E" stroke-width="4" stroke-miterlimit="10" x1="246" y1="422" x2="258.5" y2="422"/>
	<line fill="none" stroke="#DCD37E" stroke-width="4" stroke-miterlimit="10" x1="246" y1="443" x2="254.5" y2="444"/>
	<line fill="none" stroke="#DCD37E" stroke-width="4" stroke-miterlimit="10" x1="283.5" y1="318" x2="287" y2="319"/>
	<line fill="none" stroke="#DCD37E" stroke-width="4" stroke-miterlimit="10" x1="273.5" y1="276" x2="283.5" y2="276"/>
</g>
</svg>
