<?xml version="1.0" encoding="utf-8"?>
<!-- Generator: Adobe Illustrator 19.0.0, SVG Export Plug-In . SVG Version: 6.00 Build 0)  -->
<svg version="1.1" id="Capa_1" xmlns="http://www.w3.org/2000/svg" xmlns:xlink="http://www.w3.org/1999/xlink" x="0px" y="0px"
	 viewBox="-246 47.4 466.6 466.6" style="enable-background:new -246 47.4 466.6 466.6;" xml:space="preserve">
<style type="text/css">
	.st0{fill:#FFFFFF;}
</style>
<g>
	<path class="st0" d="M-12.7,47.4c-85.1,0-154.3,69.2-154.3,154.3c0,34.3,21.9,90.2,66.9,170.8c31.8,57.1,63.2,104.6,64.5,106.6
		l22.9,34.8l22.9-34.8c1.3-2,32.6-49.6,64.5-106.6c45-80.7,66.9-136.6,66.9-170.8C141.6,116.7,72.4,47.4-12.7,47.4z M-12.7,280.7
		c-44.2,0-80-35.8-80-80s35.8-80,80-80s80,35.8,80,80S31.5,280.7-12.7,280.7z"/>
</g>
</svg>
