<?xml version="1.0" encoding="utf-8"?>
<!-- Generator: Adobe Illustrator 19.0.0, SVG Export Plug-In . SVG Version: 6.00 Build 0)  -->
<svg version="1.1" id="Layer_1" xmlns="http://www.w3.org/2000/svg" xmlns:xlink="http://www.w3.org/1999/xlink" x="0px" y="0px"
	 viewBox="0 0 1280 503" style="enable-background:new 0 0 1280 503;" xml:space="preserve">
<style type="text/css">
	.st0{fill:#535C43;}
	.st1{fill:#F2F2F2;}
	.st2{fill:#FFFFFF;}
</style>
<g id="XMLID_3_">
	<rect id="XMLID_1_" y="0" class="st0" width="1280" height="503"/>
	<g id="XMLID_2_">
		<path id="XMLID_93_" class="st1" d="M1244,29.2v444.7H36V29.2H1244 M1248,25.2H32v452.7h1216V25.2L1248,25.2z"/>
	</g>
	<g id="XMLID_4_">
		<path id="XMLID_6_" class="st2" d="M310.1,201.7v11.7c-5.9-5.3-13-7.9-21.3-7.9c-8.9,0-16.5,3.2-22.6,9.7
			c-6.2,6.5-9.3,14.2-9.3,23.3c0,8.9,3.1,16.6,9.2,23.1c6.1,6.5,13.6,9.7,22.5,9.7c8.1,0,15.3-2.8,21.5-8.4v11.9
			c-6.4,3.8-13.5,5.7-21.2,5.7c-11.6,0-21.5-4-29.7-12.1c-8.2-8.1-12.4-17.9-12.4-29.6c0-11.9,4.2-22,12.5-30.2
			c8.4-8.2,18.5-12.3,30.4-12.3C297.4,196.3,304.2,198.1,310.1,201.7z"/>
		<path id="XMLID_8_" class="st2" d="M328.9,208.6c8.3-8.2,18.3-12.4,29.8-12.4s21.5,4.1,29.8,12.4c8.3,8.2,12.5,18.2,12.5,29.7
			c0,11.9-4.1,21.9-12.3,30c-8.2,8.1-18.2,12.1-30,12.1s-21.8-4-30-12.1c-8.2-8.1-12.3-18.1-12.3-30
			C316.4,226.8,320.6,216.9,328.9,208.6z M336,261.5c6.4,6.3,13.9,9.5,22.7,9.5s16.3-3.2,22.7-9.5c6.4-6.3,9.5-14,9.5-23.2
			c0-9.1-3.1-16.8-9.2-23.1c-6.1-6.4-13.8-9.5-23.1-9.5s-17,3.2-23.1,9.5c-6.1,6.4-9.2,14.1-9.2,23.1
			C326.5,247.5,329.6,255.2,336,261.5z"/>
		<path id="XMLID_12_" class="st2" d="M448.6,280.4l-24.2-55h-0.2l-9.4,53.3h-10.4l16.5-84.2l27.7,63.6l27.7-63.6l16.5,84.2h-10.4
			l-9.4-53.3h-0.2L448.6,280.4z"/>
		<path id="XMLID_14_" class="st2" d="M511.6,198v80.7h-10.1V198H511.6z"/>
		<path id="XMLID_19_" class="st2" d="M525.7,278.7v-84.6l60.6,63.5V198h10.1V282l-60.6-63.5v60.2H525.7z"/>
		<path id="XMLID_21_" class="st2" d="M652.3,238h32v3.2c0,11.2-3.6,20.5-10.7,28c-7.1,7.5-16.3,11.2-27.5,11.2
			c-11.2,0-20.8-4.2-28.8-12.5c-8-8.3-12-18.1-12-29.4c0-11.6,4.1-21.6,12.3-29.9c8.2-8.3,18-12.4,29.6-12.4
			c6.4,0,12.4,1.4,18.3,4.1c5.8,2.7,10.7,6.6,14.6,11.5l-7.1,6.7c-2.9-4-6.7-7.2-11.2-9.6c-4.6-2.4-9.3-3.6-14.1-3.6
			c-9,0-16.6,3.2-22.9,9.6c-6.2,6.4-9.4,14.1-9.4,23.2c0,8.6,3.1,16.3,9.3,23c6.2,6.7,13.5,10,22.1,10c6.4,0,12.4-2.4,17.9-7.2
			c5.5-4.8,8.4-10.4,8.6-16.8h-20.9V238z"/>
		<path id="XMLID_23_" class="st2" d="M769.1,208.5l-8,4.8c-3-5.1-7.3-7.6-13-7.6c-3.4,0-6.5,1.1-9.3,3.2c-2.8,2.1-4.2,4.9-4.2,8.2
			c0,4.9,3.7,8.7,11.2,11.6l5.8,2.2c6.4,2.5,11.4,5.6,14.8,9.3c3.5,3.7,5.2,8.7,5.2,15c0,7.3-2.5,13.3-7.4,18
			c-5,4.7-11.1,7.1-18.4,7.1c-6.5,0-12.1-2.1-16.7-6.4c-4.6-4.2-7.4-9.7-8.2-16.2l10.2-2.1c-0.1,4.4,1.4,8,4.4,10.9
			c3,2.9,6.8,4.4,11.2,4.4c4.3,0,7.8-1.6,10.7-4.7c2.8-3.1,4.2-6.8,4.2-11.1c0-3.9-1.2-7-3.7-9.3c-2.5-2.2-5.9-4.3-10.2-6l-5.6-2.4
			c-5.5-2.4-9.8-5.1-12.9-8.1c-3.1-3.1-4.7-7.2-4.7-12.3c0-6.3,2.4-11.3,7.1-15.2c4.7-3.8,10.3-5.7,16.7-5.7
			C757.6,196.3,764.6,200.3,769.1,208.5z"/>
		<path id="XMLID_25_" class="st2" d="M789.5,208.6c8.3-8.2,18.3-12.4,29.8-12.4c11.6,0,21.5,4.1,29.8,12.4
			c8.3,8.2,12.5,18.2,12.5,29.7c0,11.9-4.1,21.9-12.3,30c-8.2,8.1-18.2,12.1-30,12.1c-11.8,0-21.8-4-30-12.1
			c-8.2-8.1-12.3-18.1-12.3-30C777.1,226.8,781.2,216.9,789.5,208.6z M796.7,261.5c6.4,6.3,13.9,9.5,22.7,9.5
			c8.8,0,16.3-3.2,22.7-9.5c6.4-6.3,9.5-14,9.5-23.2c0-9.1-3.1-16.8-9.2-23.1c-6.1-6.4-13.8-9.5-23.1-9.5s-17,3.2-23.1,9.5
			c-6.1,6.4-9.2,14.1-9.2,23.1C787.1,247.5,790.3,255.2,796.7,261.5z"/>
		<path id="XMLID_28_" class="st2" d="M878.2,208.6c8.3-8.2,18.3-12.4,29.8-12.4c11.6,0,21.5,4.1,29.8,12.4
			c8.3,8.2,12.5,18.2,12.5,29.7c0,11.9-4.1,21.9-12.3,30c-8.2,8.1-18.2,12.1-30,12.1c-11.8,0-21.8-4-30-12.1
			c-8.2-8.1-12.3-18.1-12.3-30C865.7,226.8,869.9,216.9,878.2,208.6z M885.3,261.5c6.4,6.3,13.9,9.5,22.7,9.5
			c8.8,0,16.3-3.2,22.7-9.5c6.4-6.3,9.5-14,9.5-23.2c0-9.1-3.1-16.8-9.2-23.1c-6.1-6.4-13.8-9.5-23.1-9.5s-17,3.2-23.1,9.5
			c-6.1,6.4-9.2,14.1-9.2,23.1C875.8,247.5,879,255.2,885.3,261.5z"/>
		<path id="XMLID_31_" class="st2" d="M959.1,278.7v-84.6l60.6,63.5V198h10.1V282l-60.6-63.5v60.2H959.1z"/>
	</g>
	<g id="XMLID_5_">
		<path id="XMLID_15_" class="st2" d="M437,96.3c2.3-2.3,5.1-3.5,8.3-3.5s6,1.2,8.3,3.5c2.3,2.3,3.5,5.1,3.5,8.3
			c0,3.3-1.1,6.1-3.4,8.4c-2.3,2.3-5.1,3.4-8.4,3.4s-6.1-1.1-8.4-3.4c-2.3-2.3-3.4-5-3.4-8.4C433.5,101.3,434.7,98.6,437,96.3z
			 M439,111c1.8,1.8,3.9,2.6,6.3,2.6c2.5,0,4.6-0.9,6.3-2.6c1.8-1.8,2.7-3.9,2.7-6.5c0-2.5-0.9-4.7-2.6-6.5
			c-1.7-1.8-3.9-2.7-6.4-2.7c-2.6,0-4.7,0.9-6.4,2.7c-1.7,1.8-2.6,3.9-2.6,6.5C436.3,107.1,437.2,109.3,439,111z"/>
		<path id="XMLID_33_" class="st2" d="M459.4,93.3h2.8v13.3c0,4.7,1.8,7.1,5.4,7.1c3.6,0,5.4-2.4,5.4-7.1V93.3h2.8v14.3
			c0,2.6-0.7,4.6-2.2,6.3c-1.5,1.6-3.5,2.5-6,2.5c-2.5,0-4.5-0.8-6-2.5c-1.5-1.6-2.2-3.7-2.2-6.3V93.3z"/>
		<path id="XMLID_36_" class="st2" d="M486.7,106l7.1,9.8h-3.4l-6.6-9.5h-1.2v9.5h-2.8V93.3h3.4c0.9,0,1.5,0,2.1,0
			c0.5,0,1.2,0.1,1.9,0.3c0.7,0.2,1.4,0.4,2,0.7c0.9,0.5,1.6,1.3,2.2,2.3c0.5,1,0.8,2,0.8,3.1c0,1.6-0.5,3-1.5,4.2
			C489.6,105.1,488.3,105.8,486.7,106z M482.6,95.8v8.2h0.9c0.8,0,1.5,0,2.2-0.1c0.6-0.1,1.3-0.3,1.9-0.6c0.6-0.3,1.1-0.7,1.4-1.3
			c0.3-0.6,0.5-1.3,0.5-2.2c0-2.7-2-4-6.1-4H482.6z"/>
		<path id="XMLID_42_" class="st2" d="M516.3,104.5h8.9v0.9c0,3.1-1,5.7-3,7.8c-2,2.1-4.6,3.1-7.7,3.1c-3.1,0-5.8-1.2-8-3.5
			c-2.2-2.3-3.3-5.1-3.3-8.2c0-3.2,1.1-6,3.4-8.3s5-3.5,8.3-3.5c1.8,0,3.5,0.4,5.1,1.2c1.6,0.8,3,1.8,4.1,3.2l-2,1.9
			c-0.8-1.1-1.9-2-3.1-2.7c-1.3-0.7-2.6-1-3.9-1c-2.5,0-4.6,0.9-6.4,2.7c-1.7,1.8-2.6,3.9-2.6,6.5c0,2.4,0.9,4.5,2.6,6.4
			c1.7,1.9,3.8,2.8,6.2,2.8c1.8,0,3.5-0.7,5-2c1.5-1.3,2.3-2.9,2.4-4.7h-5.8V104.5z"/>
		<path id="XMLID_44_" class="st2" d="M528,115.8V93.3h12.1v2.6h-9.3v6.3h9v2.6h-9v8.5h9.3v2.6H528z"/>
		<path id="XMLID_46_" class="st2" d="M545.4,96.3c2.3-2.3,5.1-3.5,8.3-3.5c3.2,0,6,1.2,8.3,3.5c2.3,2.3,3.5,5.1,3.5,8.3
			c0,3.3-1.1,6.1-3.4,8.4c-2.3,2.3-5.1,3.4-8.4,3.4c-3.3,0-6.1-1.1-8.4-3.4c-2.3-2.3-3.4-5-3.4-8.4C542,101.3,543.1,98.6,545.4,96.3
			z M547.4,111c1.8,1.8,3.9,2.6,6.3,2.6c2.5,0,4.6-0.9,6.3-2.6c1.8-1.8,2.7-3.9,2.7-6.5c0-2.5-0.9-4.7-2.6-6.5
			c-1.7-1.8-3.9-2.7-6.4-2.7c-2.6,0-4.7,0.9-6.4,2.7c-1.7,1.8-2.6,3.9-2.6,6.5C544.8,107.1,545.7,109.3,547.4,111z"/>
		<path id="XMLID_49_" class="st2" d="M580.5,96.2l-2.2,1.3c-0.8-1.4-2-2.1-3.6-2.1c-1,0-1.8,0.3-2.6,0.9s-1.2,1.4-1.2,2.3
			c0,1.4,1,2.4,3.1,3.2l1.6,0.6c1.8,0.7,3.2,1.6,4.1,2.6c1,1,1.4,2.4,1.4,4.2c0,2-0.7,3.7-2.1,5c-1.4,1.3-3.1,2-5.1,2
			c-1.8,0-3.4-0.6-4.7-1.8c-1.3-1.2-2.1-2.7-2.3-4.5l2.8-0.6c0,1.2,0.4,2.2,1.2,3c0.8,0.8,1.9,1.2,3.1,1.2c1.2,0,2.2-0.4,3-1.3
			c0.8-0.9,1.2-1.9,1.2-3.1c0-1.1-0.3-2-1-2.6c-0.7-0.6-1.6-1.2-2.9-1.7l-1.6-0.7c-1.5-0.7-2.7-1.4-3.6-2.3c-0.9-0.9-1.3-2-1.3-3.4
			c0-1.8,0.7-3.2,2-4.2c1.3-1.1,2.9-1.6,4.7-1.6C577.3,92.8,579.3,94,580.5,96.2z"/>
		<path id="XMLID_51_" class="st2" d="M586.9,102.4h10.7v-9.1h2.8v22.5h-2.8V105h-10.7v10.8h-2.8V93.3h2.8V102.4z"/>
		<path id="XMLID_53_" class="st2" d="M604.5,115.8V93.3h12.1v2.6h-9.3v6.3h9v2.6h-9v8.5h9.3v2.6H604.5z"/>
		<path id="XMLID_55_" class="st2" d="M622.9,106.4v9.4h-2.8V93.3h3.2c3.3,0,5.7,0.5,7,1.6c1.4,1.1,2,2.7,2,4.9c0,2.2-0.7,3.9-2.2,5
			c-1.5,1.1-3.4,1.6-5.7,1.6H622.9z M622.9,95.8v8.1h0.9c0.8,0,1.5,0,2.2-0.1c0.6-0.1,1.3-0.3,1.9-0.6c0.6-0.3,1.1-0.7,1.4-1.3
			c0.3-0.6,0.5-1.3,0.5-2.2c0-0.8-0.2-1.5-0.5-2.1c-0.4-0.6-0.9-1-1.5-1.2c-0.7-0.2-1.3-0.4-1.9-0.5c-0.6-0.1-1.3-0.1-2.2-0.1H622.9
			z"/>
		<path id="XMLID_58_" class="st2" d="M637.4,102.4h10.7v-9.1h2.8v22.5h-2.8V105h-10.7v10.8h-2.8V93.3h2.8V102.4z"/>
		<path id="XMLID_60_" class="st2" d="M655,115.8V93.3h12.1v2.6h-9.3v6.3h9v2.6h-9v8.5h9.3v2.6H655z"/>
		<path id="XMLID_62_" class="st2" d="M677.5,106l7.1,9.8h-3.4l-6.6-9.5h-1.2v9.5h-2.8V93.3h3.4c0.9,0,1.5,0,2.1,0
			c0.5,0,1.2,0.1,1.9,0.3c0.7,0.2,1.4,0.4,2,0.7c0.9,0.5,1.6,1.3,2.2,2.3c0.5,1,0.8,2,0.8,3.1c0,1.6-0.5,3-1.5,4.2
			C680.4,105.1,679.1,105.8,677.5,106z M673.4,95.8v8.2h0.9c0.8,0,1.5,0,2.2-0.1c0.6-0.1,1.3-0.3,1.9-0.6c0.6-0.3,1.1-0.7,1.4-1.3
			c0.3-0.6,0.5-1.3,0.5-2.2c0-2.7-2-4-6.1-4H673.4z"/>
		<path id="XMLID_65_" class="st2" d="M686.6,115.8V93.3h4.7c3.6,0,6.7,1,9.1,2.9c2.4,1.9,3.6,4.7,3.6,8.3c0,3.7-1.2,6.5-3.6,8.5
			c-2.4,2-5.4,2.9-9.2,2.9H686.6z M689.4,95.9v17.4h1c1.5,0,2.9-0.1,4.1-0.4c1.2-0.3,2.4-0.8,3.4-1.4c1-0.7,1.8-1.6,2.4-2.7
			c0.6-1.2,0.9-2.5,0.9-4.1c0-1.6-0.3-3-0.9-4.1c-0.6-1.2-1.4-2.1-2.4-2.7c-1-0.6-2.1-1.1-3.4-1.4c-1.2-0.3-2.6-0.4-4.1-0.4H689.4z"
			/>
		<path id="XMLID_68_" class="st2" d="M719,96.2l-2.2,1.3c-0.8-1.4-2-2.1-3.6-2.1c-1,0-1.8,0.3-2.6,0.9c-0.8,0.6-1.2,1.4-1.2,2.3
			c0,1.4,1,2.4,3.1,3.2l1.6,0.6c1.8,0.7,3.2,1.6,4.1,2.6c1,1,1.4,2.4,1.4,4.2c0,2-0.7,3.7-2.1,5c-1.4,1.3-3.1,2-5.1,2
			c-1.8,0-3.4-0.6-4.7-1.8c-1.3-1.2-2.1-2.7-2.3-4.5l2.8-0.6c0,1.2,0.4,2.2,1.2,3c0.8,0.8,1.9,1.2,3.1,1.2c1.2,0,2.2-0.4,3-1.3
			c0.8-0.9,1.2-1.9,1.2-3.1c0-1.1-0.3-2-1-2.6c-0.7-0.6-1.6-1.2-2.9-1.7l-1.6-0.7c-1.5-0.7-2.7-1.4-3.6-2.3c-0.9-0.9-1.3-2-1.3-3.4
			c0-1.8,0.7-3.2,2-4.2c1.3-1.1,2.9-1.6,4.7-1.6C715.8,92.8,717.7,94,719,96.2z"/>
		<path id="XMLID_70_" class="st2" d="M743.6,96.2l-2.2,1.3c-0.8-1.4-2-2.1-3.6-2.1c-1,0-1.8,0.3-2.6,0.9s-1.2,1.4-1.2,2.3
			c0,1.4,1,2.4,3.1,3.2l1.6,0.6c1.8,0.7,3.2,1.6,4.1,2.6c1,1,1.4,2.4,1.4,4.2c0,2-0.7,3.7-2.1,5c-1.4,1.3-3.1,2-5.1,2
			c-1.8,0-3.4-0.6-4.7-1.8c-1.3-1.2-2.1-2.7-2.3-4.5l2.8-0.6c0,1.2,0.4,2.2,1.2,3c0.8,0.8,1.9,1.2,3.1,1.2c1.2,0,2.2-0.4,3-1.3
			c0.8-0.9,1.2-1.9,1.2-3.1c0-1.1-0.3-2-1-2.6c-0.7-0.6-1.6-1.2-2.9-1.7l-1.6-0.7c-1.5-0.7-2.7-1.4-3.6-2.3c-0.9-0.9-1.3-2-1.3-3.4
			c0-1.8,0.7-3.2,2-4.2c1.3-1.1,2.9-1.6,4.7-1.6C740.4,92.8,742.4,94,743.6,96.2z"/>
		<path id="XMLID_72_" class="st2" d="M753.5,95.9v20h-2.8v-20h-5.3v-2.6h13.5v2.6H753.5z"/>
		<path id="XMLID_74_" class="st2" d="M763,96.3c2.3-2.3,5.1-3.5,8.3-3.5c3.2,0,6,1.2,8.3,3.5c2.3,2.3,3.5,5.1,3.5,8.3
			c0,3.3-1.1,6.1-3.4,8.4c-2.3,2.3-5.1,3.4-8.4,3.4c-3.3,0-6.1-1.1-8.4-3.4c-2.3-2.3-3.4-5-3.4-8.4C759.5,101.3,760.6,98.6,763,96.3
			z M765,111c1.8,1.8,3.9,2.6,6.3,2.6c2.5,0,4.6-0.9,6.3-2.6c1.8-1.8,2.7-3.9,2.7-6.5c0-2.5-0.9-4.7-2.6-6.5
			c-1.7-1.8-3.9-2.7-6.4-2.7c-2.6,0-4.7,0.9-6.4,2.7c-1.7,1.8-2.6,3.9-2.6,6.5C762.3,107.1,763.2,109.3,765,111z"/>
		<path id="XMLID_77_" class="st2" d="M792.7,106l7.1,9.8h-3.4l-6.6-9.5h-1.2v9.5h-2.8V93.3h3.4c0.9,0,1.5,0,2.1,0
			c0.5,0,1.2,0.1,1.9,0.3c0.7,0.2,1.4,0.4,2,0.7c0.9,0.5,1.6,1.3,2.2,2.3c0.5,1,0.8,2,0.8,3.1c0,1.6-0.5,3-1.5,4.2
			C795.6,105.1,794.3,105.8,792.7,106z M788.6,95.8v8.2h0.9c0.8,0,1.5,0,2.2-0.1c0.6-0.1,1.3-0.3,1.9-0.6c0.6-0.3,1.1-0.7,1.4-1.3
			c0.3-0.6,0.5-1.3,0.5-2.2c0-2.7-2-4-6.1-4H788.6z"/>
		<path id="XMLID_80_" class="st2" d="M802,115.8V93.3h12.1v2.6h-9.3v6.3h9v2.6h-9v8.5h9.3v2.6H802z"/>
		<path id="XMLID_82_" class="st2" d="M829,93.3v22.5h-2.8V93.3H829z"/>
		<path id="XMLID_84_" class="st2" d="M845.4,96.2l-2.2,1.3c-0.8-1.4-2-2.1-3.6-2.1c-1,0-1.8,0.3-2.6,0.9s-1.2,1.4-1.2,2.3
			c0,1.4,1,2.4,3.1,3.2l1.6,0.6c1.8,0.7,3.2,1.6,4.1,2.6c1,1,1.4,2.4,1.4,4.2c0,2-0.7,3.7-2.1,5c-1.4,1.3-3.1,2-5.1,2
			c-1.8,0-3.4-0.6-4.7-1.8c-1.3-1.2-2.1-2.7-2.3-4.5l2.8-0.6c0,1.2,0.4,2.2,1.2,3c0.8,0.8,1.9,1.2,3.1,1.2c1.2,0,2.2-0.4,3-1.3
			c0.8-0.9,1.2-1.9,1.2-3.1c0-1.1-0.3-2-1-2.6c-0.7-0.6-1.6-1.2-2.9-1.7l-1.6-0.7c-1.5-0.7-2.7-1.4-3.6-2.3c-0.9-0.9-1.3-2-1.3-3.4
			c0-1.8,0.7-3.2,2-4.2c1.3-1.1,2.9-1.6,4.7-1.6C842.2,92.8,844.2,94,845.4,96.2z"/>
	</g>
</g>
<g id="XMLID_35_">
	<path id="XMLID_101_" class="st2" d="M345.1,357.6h-3.8v3h3.7v1.2h-3.7v5.2H340v-10.6h5.1V357.6z"/>
	<path id="XMLID_103_" class="st2" d="M347.5,357.8c1.1-1.1,2.4-1.6,3.9-1.6c1.5,0,2.8,0.5,3.9,1.6s1.6,2.4,1.6,3.9
		c0,1.6-0.5,2.9-1.6,3.9c-1.1,1.1-2.4,1.6-3.9,1.6s-2.8-0.5-3.9-1.6c-1.1-1.1-1.6-2.4-1.6-3.9C345.9,360.2,346.4,358.9,347.5,357.8z
		 M348.5,364.7c0.8,0.8,1.8,1.2,3,1.2s2.1-0.4,3-1.2c0.8-0.8,1.2-1.8,1.2-3c0-1.2-0.4-2.2-1.2-3s-1.8-1.2-3-1.2s-2.2,0.4-3,1.2
		c-0.8,0.8-1.2,1.8-1.2,3C347.2,362.9,347.6,363.9,348.5,364.7z"/>
	<path id="XMLID_106_" class="st2" d="M359.6,356.4v9.4h3.2v1.2h-4.5v-10.6H359.6z"/>
	<path id="XMLID_108_" class="st2" d="M364.9,356.4v9.4h3.2v1.2h-4.5v-10.6H364.9z"/>
	<path id="XMLID_110_" class="st2" d="M369.9,357.8c1.1-1.1,2.4-1.6,3.9-1.6c1.5,0,2.8,0.5,3.9,1.6s1.6,2.4,1.6,3.9
		c0,1.6-0.5,2.9-1.6,3.9c-1.1,1.1-2.4,1.6-3.9,1.6s-2.8-0.5-3.9-1.6c-1.1-1.1-1.6-2.4-1.6-3.9C368.3,360.2,368.8,358.9,369.9,357.8z
		 M370.8,364.7c0.8,0.8,1.8,1.2,3,1.2s2.1-0.4,3-1.2c0.8-0.8,1.2-1.8,1.2-3c0-1.2-0.4-2.2-1.2-3s-1.8-1.2-3-1.2s-2.2,0.4-3,1.2
		c-0.8,0.8-1.2,1.8-1.2,3C369.6,362.9,370,363.9,370.8,364.7z"/>
	<path id="XMLID_113_" class="st2" d="M380.9,356.4l3,7.6l3-7.8l3,7.8l3-7.6h1.4l-4.4,11l-3-7.7l-3,7.7l-4.4-11H380.9z"/>
	<path id="XMLID_115_" class="st2" d="M398.8,356.4h1.3v6.2c0,2.2,0.8,3.3,2.5,3.3s2.5-1.1,2.5-3.3v-6.2h1.3v6.7
		c0,1.2-0.3,2.2-1,2.9c-0.7,0.8-1.6,1.2-2.8,1.2c-1.2,0-2.1-0.4-2.8-1.2c-0.7-0.8-1-1.8-1-2.9V356.4z"/>
	<path id="XMLID_117_" class="st2" d="M414.1,357.8l-1,0.6c-0.4-0.7-1-1-1.7-1c-0.4,0-0.9,0.1-1.2,0.4c-0.4,0.3-0.5,0.6-0.5,1.1
		c0,0.6,0.5,1.1,1.5,1.5l0.8,0.3c0.8,0.3,1.5,0.7,1.9,1.2c0.5,0.5,0.7,1.1,0.7,2c0,1-0.3,1.7-1,2.4c-0.6,0.6-1.4,0.9-2.4,0.9
		c-0.8,0-1.6-0.3-2.2-0.8c-0.6-0.6-1-1.3-1.1-2.1l1.3-0.3c0,0.6,0.2,1,0.6,1.4s0.9,0.6,1.5,0.6c0.6,0,1-0.2,1.4-0.6s0.6-0.9,0.6-1.4
		c0-0.5-0.2-0.9-0.5-1.2c-0.3-0.3-0.8-0.6-1.3-0.8l-0.7-0.3c-0.7-0.3-1.3-0.7-1.7-1.1c-0.4-0.4-0.6-0.9-0.6-1.6c0-0.8,0.3-1.5,0.9-2
		c0.6-0.5,1.3-0.7,2.2-0.7C412.6,356.2,413.5,356.7,414.1,357.8z"/>
	<path id="XMLID_119_" class="st2" d="M420.8,357.8c1.1-1.1,2.4-1.6,3.9-1.6c1.5,0,2.8,0.5,3.9,1.6s1.6,2.4,1.6,3.9
		c0,1.6-0.5,2.9-1.6,3.9c-1.1,1.1-2.4,1.6-3.9,1.6s-2.8-0.5-3.9-1.6c-1.1-1.1-1.6-2.4-1.6-3.9C419.2,360.2,419.8,358.9,420.8,357.8z
		 M421.8,364.7c0.8,0.8,1.8,1.2,3,1.2s2.1-0.4,3-1.2c0.8-0.8,1.2-1.8,1.2-3c0-1.2-0.4-2.2-1.2-3s-1.8-1.2-3-1.2s-2.2,0.4-3,1.2
		c-0.8,0.8-1.2,1.8-1.2,3C420.5,362.9,420.9,363.9,421.8,364.7z"/>
	<path id="XMLID_122_" class="st2" d="M431.4,366.9v-11.1l7.9,8.3v-7.8h1.3v11l-7.9-8.3v7.9H431.4z"/>
	<path id="XMLID_124_" class="st2" d="M450.7,358.7v8.2h-2.7v-8.2h-2.3v-2.3h7.3v2.3H450.7z"/>
	<path id="XMLID_126_" class="st2" d="M455.7,356.4l1.8,6.8h0l2.2-6.8h2.2l2.1,6.8h0l2-6.8h2.9l-3.4,10.6h-2.8l-1.8-6.1h0l-2.1,6.1
		H456l-3.2-10.6H455.7z"/>
	<path id="XMLID_128_" class="st2" d="M472.3,356.4v10.6h-2.7v-10.6H472.3z"/>
	<path id="XMLID_130_" class="st2" d="M478.3,358.7v8.2h-2.7v-8.2h-2.3v-2.3h7.3v2.3H478.3z"/>
	<path id="XMLID_132_" class="st2" d="M485.8,358.7v8.2H483v-8.2h-2.3v-2.3h7.3v2.3H485.8z"/>
	<path id="XMLID_134_" class="st2" d="M495,358.7h-3.3v1.8h3.1v2.3h-3.1v1.8h3.3v2.3h-6v-10.6h6V358.7z"/>
	<path id="XMLID_136_" class="st2" d="M502.2,362.6l3.3,4.3h-3.4l-2.6-4.1h0v4.1h-2.7v-10.6h4.1c1.1,0,2,0.3,2.7,0.8
		c0.7,0.5,1,1.4,1,2.4c0,0.8-0.2,1.4-0.6,2C503.5,362.2,502.9,362.5,502.2,362.6z M499.5,358.5v2.6h0.3c1.3,0,1.9-0.4,1.9-1.3
		c0-0.9-0.6-1.3-1.9-1.3H499.5z"/>
	<path id="XMLID_139_" class="st2" d="M511.3,357.8c1.1-1.1,2.4-1.6,3.9-1.6s2.8,0.5,3.9,1.6c1.1,1.1,1.6,2.4,1.6,3.9
		c0,1.6-0.5,2.9-1.6,3.9c-1.1,1.1-2.4,1.6-3.9,1.6s-2.8-0.5-3.9-1.6c-1.1-1.1-1.6-2.4-1.6-3.9C509.7,360.2,510.2,358.9,511.3,357.8z
		 M512.2,364.7c0.8,0.8,1.8,1.2,3,1.2c1.1,0,2.1-0.4,3-1.2c0.8-0.8,1.2-1.8,1.2-3c0-1.2-0.4-2.2-1.2-3c-0.8-0.8-1.8-1.2-3-1.2
		s-2.2,0.4-3,1.2s-1.2,1.8-1.2,3C511,362.9,511.4,363.9,512.2,364.7z"/>
	<path id="XMLID_142_" class="st2" d="M525.2,362.4l3.3,4.6H527l-3.1-4.5h-0.5v4.5H522v-10.6h1.6c0.4,0,0.7,0,1,0s0.5,0.1,0.9,0.1
		c0.4,0.1,0.7,0.2,0.9,0.3c0.4,0.3,0.8,0.6,1,1.1c0.2,0.5,0.4,0.9,0.4,1.5c0,0.8-0.2,1.4-0.7,2C526.6,361.9,526,362.3,525.2,362.4z
		 M523.3,357.6v3.8h0.4c0.4,0,0.7,0,1-0.1s0.6-0.1,0.9-0.3s0.5-0.3,0.7-0.6c0.2-0.3,0.2-0.6,0.2-1c0-1.3-1-1.9-2.9-1.9H523.3z"/>
	<path id="XMLID_145_" class="st2" d="M536.3,356.4v10.6h-2.7v-10.6H536.3z"/>
	<path id="XMLID_147_" class="st2" d="M538.1,366.9v-10.6h2.7l5,6.5h0v-6.5h2.7v10.6h-2.7l-5-6.5h0v6.5H538.1z"/>
	<path id="XMLID_149_" class="st2" d="M557.3,357l-1.1,2.1c-0.6-0.5-1.2-0.7-1.8-0.7c-0.3,0-0.6,0.1-0.8,0.2
		c-0.2,0.2-0.4,0.4-0.4,0.6c0,0.2,0.1,0.4,0.2,0.5c0.2,0.1,0.3,0.3,0.4,0.3c0.1,0.1,0.3,0.1,0.6,0.2l0.7,0.2c0.8,0.2,1.5,0.6,1.9,1
		c0.5,0.4,0.7,1.1,0.7,1.9c0,1.3-0.4,2.2-1.1,2.8c-0.8,0.7-1.8,1-3,1c-1.3,0-2.6-0.4-3.7-1.2l1.2-2.2c0.8,0.7,1.6,1.1,2.4,1.1
		c0.4,0,0.7-0.1,0.9-0.3c0.3-0.2,0.4-0.4,0.4-0.8c0-0.5-0.4-0.8-1.3-1.1c0,0-0.1,0-0.3-0.1c-0.5-0.1-0.9-0.3-1.2-0.4
		s-0.6-0.3-0.9-0.5s-0.5-0.5-0.6-0.8c-0.1-0.3-0.2-0.8-0.2-1.2c0-1.1,0.3-1.9,1-2.6c0.7-0.6,1.6-1,2.6-1c0.5,0,1.1,0.1,1.7,0.2
		C556.3,356.5,556.8,356.7,557.3,357z"/>
	<path id="XMLID_151_" class="st2" d="M563.2,358.7v8.2h-2.7v-8.2h-2.3v-2.3h7.3v2.3H563.2z"/>
	<path id="XMLID_153_" class="st2" d="M572.1,365.1h-3.8l-0.7,1.8h-2.9l4.1-10.6h3l4,10.6h-2.9L572.1,365.1z M571.4,363l-1.1-3.4h0
		l-1.1,3.4H571.4z"/>
	<path id="XMLID_156_" class="st2" d="M581.7,361.1h5.4c0,0.9-0.1,1.7-0.2,2.3c-0.1,0.6-0.4,1.3-0.8,1.8c-1,1.4-2.4,2.1-4.4,2.1
		c-1.7,0-3-0.5-4.1-1.5c-1-1-1.6-2.4-1.6-4c0-1.7,0.5-3.1,1.6-4.1s2.4-1.6,4.1-1.6c1.1,0,2.1,0.2,2.9,0.7c0.8,0.5,1.4,1.2,1.9,2.2
		l-2.6,1.1c-0.2-0.5-0.5-0.9-0.9-1.2c-0.4-0.3-0.9-0.4-1.4-0.4c-0.8,0-1.5,0.3-2,1s-0.7,1.4-0.7,2.3s0.3,1.6,0.7,2.3
		c0.5,0.7,1.2,1,2,1c0.6,0,1.1-0.2,1.5-0.5s0.6-0.8,0.7-1.4h-2.2V361.1z"/>
	<path id="XMLID_158_" class="st2" d="M593.8,362.6l3.3,4.3h-3.4l-2.6-4.1h0v4.1h-2.7v-10.6h4.1c1.1,0,2,0.3,2.7,0.8
		c0.7,0.5,1,1.4,1,2.4c0,0.8-0.2,1.4-0.6,2C595.1,362.2,594.6,362.5,593.8,362.6z M591.1,358.5v2.6h0.3c1.3,0,1.9-0.4,1.9-1.3
		c0-0.9-0.6-1.3-1.9-1.3H591.1z"/>
	<path id="XMLID_161_" class="st2" d="M604.4,365.1h-3.8l-0.7,1.8h-2.9l4.1-10.6h3l4,10.6h-2.9L604.4,365.1z M603.6,363l-1.1-3.4h0
		l-1.1,3.4H603.6z"/>
	<path id="XMLID_164_" class="st2" d="M608.2,366.9l1.8-10.6h2.7l2.1,5.6l2.3-5.6h2.7l1.6,10.6h-2.7l-0.8-6.1h0l-2.5,6.1h-1.1
		l-2.4-6.1h0l-0.9,6.1H608.2z"/>
	<path id="XMLID_166_" class="st2" d="M633.8,364.3H629l-1.2,2.6h-1.4l5-11l5,11h-1.4L633.8,364.3z M633.3,363.1l-1.9-4.3l-1.9,4.3
		H633.3z"/>
	<path id="XMLID_169_" class="st2" d="M637.2,366.9v-11.1l7.9,8.3v-7.8h1.3v11l-7.9-8.3v7.9H637.2z"/>
	<path id="XMLID_171_" class="st2" d="M648.2,366.9v-10.6h2.2c1.7,0,3.1,0.5,4.2,1.4c1.1,0.9,1.7,2.2,1.7,3.9c0,1.7-0.6,3-1.7,4
		c-1.1,0.9-2.5,1.4-4.3,1.4H648.2z M649.5,357.6v8.1h0.5c0.7,0,1.4-0.1,1.9-0.2c0.6-0.1,1.1-0.4,1.6-0.7c0.5-0.3,0.8-0.7,1.1-1.3
		c0.3-0.5,0.4-1.2,0.4-1.9c0-0.7-0.1-1.4-0.4-1.9s-0.6-1-1.1-1.3c-0.5-0.3-1-0.5-1.6-0.7c-0.6-0.1-1.2-0.2-1.9-0.2H649.5z"/>
	<path id="XMLID_174_" class="st2" d="M661.6,366.9v-10.6h1.3c0.5,0,1,0,1.5,0.1c0.4,0.1,0.8,0.2,1.2,0.4c0.4,0.2,0.7,0.5,0.9,0.9
		c0.2,0.4,0.3,0.9,0.3,1.4c0,0.4-0.1,0.8-0.3,1.2c-0.2,0.4-0.5,0.7-0.8,0.8v0c0.6,0.1,1.1,0.4,1.5,0.9c0.4,0.5,0.6,1.1,0.6,1.7
		c0,1-0.4,1.7-1.1,2.2c-0.7,0.5-1.6,0.7-2.6,0.7H661.6z M662.9,357.6v3.5h0.3c0.7,0,1.3-0.1,1.7-0.4c0.4-0.2,0.6-0.7,0.6-1.4
		c0-0.7-0.2-1.1-0.6-1.4c-0.4-0.2-0.9-0.4-1.7-0.4H662.9z M662.9,362.1v3.7h1c1.7,0,2.5-0.6,2.5-1.9c0-0.4-0.1-0.7-0.2-0.9
		c-0.2-0.2-0.4-0.4-0.7-0.6c-0.3-0.1-0.6-0.2-0.9-0.3c-0.3-0.1-0.6-0.1-0.9-0.1H662.9z"/>
	<path id="XMLID_178_" class="st2" d="M669.2,366.9v-10.6h5.7v1.2h-4.4v3h4.2v1.2h-4.2v4h4.4v1.2H669.2z"/>
	<path id="XMLID_180_" class="st2" d="M683.4,357.6v9.4H682v-9.4h-2.5v-1.2h6.3v1.2H683.4z"/>
	<path id="XMLID_182_" class="st2" d="M688.1,360.6h5v-4.3h1.3v10.6h-1.3v-5.1h-5v5.1h-1.3v-10.6h1.3V360.6z"/>
	<path id="XMLID_184_" class="st2" d="M696.4,366.9v-10.6h5.7v1.2h-4.4v3h4.2v1.2h-4.2v4h4.4v1.2H696.4z"/>
	<path id="XMLID_186_" class="st2" d="M712.8,357.6H709v3h3.7v1.2H709v5.2h-1.3v-10.6h5.1V357.6z"/>
	<path id="XMLID_188_" class="st2" d="M715.6,356.4v10.6h-1.3v-10.6H715.6z"/>
	<path id="XMLID_190_" class="st2" d="M720.8,362.4l3.3,4.6h-1.6l-3.1-4.5h-0.5v4.5h-1.3v-10.6h1.6c0.4,0,0.7,0,1,0s0.5,0.1,0.9,0.1
		c0.4,0.1,0.7,0.2,0.9,0.3c0.4,0.3,0.8,0.6,1,1.1c0.2,0.5,0.4,0.9,0.4,1.5c0,0.8-0.2,1.4-0.7,2C722.2,361.9,721.6,362.3,720.8,362.4
		z M718.9,357.6v3.8h0.4c0.4,0,0.7,0,1-0.1s0.6-0.1,0.9-0.3s0.5-0.3,0.7-0.6c0.2-0.3,0.2-0.6,0.2-1c0-1.3-1-1.9-2.9-1.9H718.9z"/>
	<path id="XMLID_193_" class="st2" d="M730.9,357.8l-1,0.6c-0.4-0.7-1-1-1.7-1c-0.4,0-0.9,0.1-1.2,0.4s-0.5,0.6-0.5,1.1
		c0,0.6,0.5,1.1,1.5,1.5l0.8,0.3c0.8,0.3,1.5,0.7,1.9,1.2c0.5,0.5,0.7,1.1,0.7,2c0,1-0.3,1.7-1,2.4c-0.6,0.6-1.4,0.9-2.4,0.9
		c-0.8,0-1.6-0.3-2.2-0.8c-0.6-0.6-1-1.3-1.1-2.1l1.3-0.3c0,0.6,0.2,1,0.6,1.4c0.4,0.4,0.9,0.6,1.5,0.6c0.6,0,1-0.2,1.4-0.6
		s0.6-0.9,0.6-1.4c0-0.5-0.2-0.9-0.5-1.2s-0.8-0.6-1.3-0.8l-0.7-0.3c-0.7-0.3-1.3-0.7-1.7-1.1c-0.4-0.4-0.6-0.9-0.6-1.6
		c0-0.8,0.3-1.5,0.9-2c0.6-0.5,1.3-0.7,2.2-0.7C729.4,356.2,730.3,356.7,730.9,357.8z"/>
	<path id="XMLID_195_" class="st2" d="M735.5,357.6v9.4h-1.3v-9.4h-2.5v-1.2h6.3v1.2H735.5z"/>
	<path id="XMLID_197_" class="st2" d="M746,357.6v9.4h-1.3v-9.4h-2.5v-1.2h6.3v1.2H746z"/>
	<path id="XMLID_199_" class="st2" d="M750.4,357.8c1.1-1.1,2.4-1.6,3.9-1.6s2.8,0.5,3.9,1.6c1.1,1.1,1.6,2.4,1.6,3.9
		c0,1.6-0.5,2.9-1.6,3.9c-1.1,1.1-2.4,1.6-3.9,1.6s-2.8-0.5-3.9-1.6c-1.1-1.1-1.6-2.4-1.6-3.9C748.8,360.2,749.3,358.9,750.4,357.8z
		 M751.3,364.7c0.8,0.8,1.8,1.2,3,1.2c1.1,0,2.1-0.4,3-1.2c0.8-0.8,1.2-1.8,1.2-3c0-1.2-0.4-2.2-1.2-3c-0.8-0.8-1.8-1.2-3-1.2
		s-2.2,0.4-3,1.2s-1.2,1.8-1.2,3C750.1,362.9,750.5,363.9,751.3,364.7z"/>
	<path id="XMLID_202_" class="st2" d="M766.5,361l4.5-4.6h1.7l-4.7,4.7l4.8,5.8H771l-4-4.9l-0.5,0.5v4.4h-1.3v-10.6h1.3V361z"/>
	<path id="XMLID_204_" class="st2" d="M773.4,366.9v-11.1l7.9,8.3v-7.8h1.3v11l-7.9-8.3v7.9H773.4z"/>
	<path id="XMLID_206_" class="st2" d="M785.4,357.8c1.1-1.1,2.4-1.6,3.9-1.6s2.8,0.5,3.9,1.6c1.1,1.1,1.6,2.4,1.6,3.9
		c0,1.6-0.5,2.9-1.6,3.9c-1.1,1.1-2.4,1.6-3.9,1.6s-2.8-0.5-3.9-1.6c-1.1-1.1-1.6-2.4-1.6-3.9C783.8,360.2,784.3,358.9,785.4,357.8z
		 M786.4,364.7c0.8,0.8,1.8,1.2,3,1.2c1.1,0,2.1-0.4,3-1.2c0.8-0.8,1.2-1.8,1.2-3c0-1.2-0.4-2.2-1.2-3c-0.8-0.8-1.8-1.2-3-1.2
		s-2.2,0.4-3,1.2s-1.2,1.8-1.2,3C785.1,362.9,785.5,363.9,786.4,364.7z"/>
	<path id="XMLID_209_" class="st2" d="M796.4,356.4l3,7.6l3-7.8l3,7.8l3-7.6h1.4l-4.4,11l-3-7.7l-3,7.7l-4.4-11H796.4z"/>
	<path id="XMLID_211_" class="st2" d="M814.8,356.4l3,7.6l3-7.8l3,7.8l3-7.6h1.4l-4.4,11l-3-7.7l-3,7.7l-4.4-11H814.8z"/>
	<path id="XMLID_213_" class="st2" d="M830.1,360.6h5v-4.3h1.3v10.6h-1.3v-5.1h-5v5.1h-1.3v-10.6h1.3V360.6z"/>
	<path id="XMLID_215_" class="st2" d="M838.4,366.9v-10.6h5.7v1.2h-4.4v3h4.2v1.2h-4.2v4h4.4v1.2H838.4z"/>
	<path id="XMLID_217_" class="st2" d="M845.6,366.9v-11.1l7.9,8.3v-7.8h1.3v11l-7.9-8.3v7.9H845.6z"/>
	<path id="XMLID_219_" class="st2" d="M861,356.4l3,7.6l3-7.8l3,7.8l3-7.6h1.4l-4.4,11l-3-7.7l-3,7.7l-4.4-11H861z"/>
	<path id="XMLID_221_" class="st2" d="M875.1,366.9v-10.6h5.7v1.2h-4.4v3h4.2v1.2h-4.2v4h4.4v1.2H875.1z"/>
	<path id="XMLID_223_" class="st2" d="M883.3,356.2l1.1,0.4l-1.9,3.7l-0.8-0.3L883.3,356.2z"/>
	<path id="XMLID_225_" class="st2" d="M889.5,362.4l3.3,4.6h-1.6l-3.1-4.5h-0.5v4.5h-1.3v-10.6h1.6c0.4,0,0.7,0,1,0s0.5,0.1,0.9,0.1
		c0.4,0.1,0.7,0.2,0.9,0.3c0.4,0.3,0.8,0.6,1,1.1c0.2,0.5,0.4,0.9,0.4,1.5c0,0.8-0.2,1.4-0.7,2C890.9,361.9,890.3,362.3,889.5,362.4
		z M887.6,357.6v3.8h0.4c0.4,0,0.7,0,1-0.1s0.6-0.1,0.9-0.3s0.5-0.3,0.7-0.6c0.2-0.3,0.2-0.6,0.2-1c0-1.3-1-1.9-2.9-1.9H887.6z"/>
	<path id="XMLID_228_" class="st2" d="M893.9,366.9v-10.6h5.7v1.2h-4.4v3h4.2v1.2h-4.2v4h4.4v1.2H893.9z"/>
	<path id="XMLID_230_" class="st2" d="M906.1,357.8c1.1-1.1,2.4-1.6,3.9-1.6s2.8,0.5,3.9,1.6c1.1,1.1,1.6,2.4,1.6,3.9
		c0,1.6-0.5,2.9-1.6,3.9c-1.1,1.1-2.4,1.6-3.9,1.6s-2.8-0.5-3.9-1.6c-1.1-1.1-1.6-2.4-1.6-3.9C904.5,360.2,905,358.9,906.1,357.8z
		 M907,364.7c0.8,0.8,1.8,1.2,3,1.2c1.1,0,2.1-0.4,3-1.2c0.8-0.8,1.2-1.8,1.2-3c0-1.2-0.4-2.2-1.2-3c-0.8-0.8-1.8-1.2-3-1.2
		s-2.2,0.4-3,1.2s-1.2,1.8-1.2,3C905.8,362.9,906.2,363.9,907,364.7z"/>
	<path id="XMLID_233_" class="st2" d="M918.1,362.5v4.4h-1.3v-10.6h1.5c1.6,0,2.7,0.3,3.3,0.8c0.6,0.5,1,1.3,1,2.3
		c0,1-0.3,1.8-1,2.3c-0.7,0.5-1.6,0.8-2.7,0.8H918.1z M918.1,357.6v3.8h0.4c0.4,0,0.7,0,1-0.1s0.6-0.1,0.9-0.3s0.5-0.3,0.7-0.6
		c0.2-0.3,0.2-0.6,0.2-1c0-0.4-0.1-0.7-0.3-1c-0.2-0.3-0.4-0.5-0.7-0.6c-0.3-0.1-0.6-0.2-0.9-0.2s-0.6-0.1-1-0.1H918.1z"/>
	<path id="XMLID_236_" class="st2" d="M923.7,366.9v-10.6h5.7v1.2H925v3h4.2v1.2H925v4h4.4v1.2H923.7z"/>
	<path id="XMLID_238_" class="st2" d="M930.9,366.9v-11.1l7.9,8.3v-7.8h1.3v11l-7.9-8.3v7.9H930.9z"/>
</g>
</svg>
