<?xml version="1.0" encoding="utf-8"?>
<!-- Generator: Adobe Illustrator 16.0.0, SVG Export Plug-In . SVG Version: 6.00 Build 0)  -->
<!DOCTYPE svg PUBLIC "-//W3C//DTD SVG 1.1//EN" "http://www.w3.org/Graphics/SVG/1.1/DTD/svg11.dtd">
<svg version="1.1" id="Layer_1" xmlns="http://www.w3.org/2000/svg" xmlns:xlink="http://www.w3.org/1999/xlink" x="0px" y="0px"
	 width="117.88px" height="117.869px" viewBox="0 0 117.88 117.869" enable-background="new 0 0 117.88 117.869"
	 xml:space="preserve">
<g>
	<path fill="#00CC7B" d="M58.94,0C26.391,0,0,26.38,0,58.93c0,32.551,26.391,58.939,58.94,58.939
		c32.549,0,58.939-26.389,58.939-58.939C117.88,26.38,91.489,0,58.94,0z M66.229,39.21C66.7,40.03,73,51.36,74.13,52.9
		c-7.97-0.44-12.83,3.93-19.46-0.76c4.09-0.51-3.67-6.28-5.84-8.7c4.82,0.06-2.62-4.53-5.439-8.06
		C50.681,36.42,63.14,33.83,66.229,39.21z M25.03,41.37c1.18,1.81,2.35,3.62,3.53,5.43c-1.41-0.27-3.08-0.34-4.42-0.85
		C24.181,44.46,24.75,42.83,25.03,41.37z M18.41,40.92c0.92,1.78,1.85,3.56,2.78,5.33c-1.351-0.12-2.95,0.03-4.24-0.37
		C17.25,44.21,17.931,42.55,18.41,40.92z M35.561,86.46c1.569-6.021,4.79-7.96,10.05-11.31c3.17-2.011,6.38,1.049,9.899,2.02
		C47.811,79.89,41.021,80.41,35.561,86.46z M71.36,77.65c-2.271-2.73-9.59-0.631-12.51-0.881c-4.591-0.39-5.2-1.27-9.25-3.35
		c-8.79-4.51-6.271-7.63-9.74-15.85c-2.86-6.77-18.9-7.42-25.01-10.94c6.84,0.82,26.359,1.41,30.68,7.7
		c2.88,4.18,2.47,9.39,8.729,8.28c9.5-1.68,16.45,0.351,21.96,9.58c3.87,6.471,3.711,11.561,11.131,14.051
		C77.26,88.5,76.72,84.08,71.36,77.65z M83.29,62.55c0.141-1.069,1.47-2.26,1.811-3.29c0.779,0.71,2.5,2.27,2.939,3.23
		C87.01,62.56,84.3,62.689,83.29,62.55z M85.75,58.45c0.14-1.06,1.01-2.16,1.351-3.19c0.779,0.71,1.42,2.03,1.859,2.99
		C87.931,58.32,86.771,58.59,85.75,58.45z M96.239,43.91c-1.439-0.02-7.649,1.43-9.199,6.99c-2.25,8.08-5.471,12.35-11.32,18.35
		c-3.119-4.801-7.289-7.67-12.869-8.32c2.909,0.34,16.76-7.13,20.35-15.7c4.71-11.26,17.67-12.67,18.14-3.1
		C101.34,43.14,99.05,43.95,96.239,43.91z"/>
</g>
</svg>
