<?xml version="1.0" encoding="utf-8"?>
<!-- Generator: Adobe Illustrator 16.0.0, SVG Export Plug-In . SVG Version: 6.00 Build 0)  -->
<!DOCTYPE svg PUBLIC "-//W3C//DTD SVG 1.1//EN" "http://www.w3.org/Graphics/SVG/1.1/DTD/svg11.dtd">
<svg version="1.1" id="Layer_1" xmlns="http://www.w3.org/2000/svg" xmlns:xlink="http://www.w3.org/1999/xlink" x="0px" y="0px"
	 width="117.879px" height="117.87px" viewBox="0 0 117.879 117.87" enable-background="new 0 0 117.879 117.87"
	 xml:space="preserve">
<g>
	<path fill="#299AD6" d="M58.94,0C26.39,0,0,26.38,0,58.93s26.39,58.94,58.94,58.94s58.939-26.391,58.939-58.94S91.49,0,58.94,0z
		 M66.23,39.21C66.7,40.03,73,51.36,74.129,52.9c-7.969-0.44-12.83,3.93-19.459-0.76c4.09-0.51-3.67-6.28-5.84-8.7
		c4.82,0.06-2.62-4.53-5.44-8.06C50.68,36.42,63.14,33.83,66.23,39.21z M25.03,41.37c1.18,1.81,2.35,3.62,3.53,5.43
		c-1.41-0.27-3.08-0.34-4.42-0.85C24.18,44.46,24.75,42.83,25.03,41.37z M18.41,40.92c0.92,1.78,1.85,3.56,2.78,5.33
		c-1.35-0.12-2.95,0.03-4.24-0.37C17.25,44.21,17.93,42.55,18.41,40.92z M35.56,86.46c1.57-6.02,4.79-7.96,10.05-11.311
		c3.17-2.01,6.38,1.051,9.9,2.021C47.81,79.89,41.02,80.409,35.56,86.46z M71.36,77.649c-2.27-2.729-9.59-0.629-12.51-0.879
		c-4.59-0.391-5.2-1.271-9.25-3.351c-8.79-4.511-6.27-7.63-9.74-15.85C37,50.8,20.96,50.15,14.85,46.63
		c6.84,0.82,26.36,1.41,30.68,7.7c2.88,4.18,2.47,9.39,8.73,8.281c9.5-1.681,16.45,0.35,21.959,9.58
		c3.871,6.469,3.711,11.56,11.131,14.049C77.26,88.5,76.719,84.079,71.36,77.649z M83.29,62.55c0.141-1.07,1.471-2.26,1.811-3.29
		c0.779,0.71,2.5,2.271,2.939,3.229C87.01,62.56,84.299,62.69,83.29,62.55z M85.75,58.45c0.14-1.06,1.01-2.16,1.35-3.19
		c0.779,0.71,1.42,2.03,1.859,2.99C87.93,58.32,86.77,58.59,85.75,58.45z M96.24,43.91c-1.44-0.02-7.649,1.43-9.2,6.99
		c-2.25,8.08-5.47,12.35-11.32,18.35c-3.119-4.8-7.289-7.671-12.869-8.32c2.91,0.341,16.76-7.13,20.35-15.7
		c4.711-11.26,17.67-12.67,18.141-3.1C101.34,43.14,99.049,43.95,96.24,43.91z"/>
</g>
</svg>
