<?xml version="1.0" encoding="utf-8"?>
<!-- Generator: Adobe Illustrator 16.0.0, SVG Export Plug-In . SVG Version: 6.00 Build 0)  -->
<!DOCTYPE svg PUBLIC "-//W3C//DTD SVG 1.1//EN" "http://www.w3.org/Graphics/SVG/1.1/DTD/svg11.dtd">
<svg version="1.1" id="Layer_1" xmlns="http://www.w3.org/2000/svg" xmlns:xlink="http://www.w3.org/1999/xlink" x="0px" y="0px"
	 width="117.878px" height="117.87px" viewBox="0 0 117.878 117.87" enable-background="new 0 0 117.878 117.87"
	 xml:space="preserve">
<g>
	<path fill="#ED4A43" d="M58.939,0C26.39,0,0,26.38,0,58.929c0,32.551,26.39,58.94,58.939,58.94c32.55,0,58.939-26.39,58.939-58.94
		C117.878,26.38,91.49,0,58.939,0z M66.23,39.21c0.469,0.82,6.77,12.15,7.898,13.69c-7.969-0.44-12.83,3.93-19.458-0.76
		c4.09-0.51-3.67-6.28-5.84-8.7c4.819,0.06-2.621-4.53-5.44-8.06C50.68,36.42,63.14,33.83,66.23,39.21z M25.029,41.37
		c1.18,1.81,2.35,3.62,3.53,5.43c-1.41-0.27-3.08-0.34-4.42-0.85C24.18,44.46,24.75,42.83,25.029,41.37z M18.41,40.92
		c0.92,1.78,1.85,3.56,2.779,5.33c-1.35-0.12-2.95,0.03-4.24-0.37C17.25,44.21,17.93,42.55,18.41,40.92z M35.56,86.46
		c1.569-6.021,4.79-7.961,10.05-11.311c3.17-2.01,6.38,1.05,9.9,2.02C47.81,79.89,41.02,80.41,35.56,86.46z M71.359,77.65
		c-2.27-2.73-9.59-0.63-12.509-0.88c-4.59-0.39-5.2-1.271-9.25-3.351c-8.79-4.51-6.27-7.629-9.74-15.85
		C37,50.8,20.959,50.15,14.85,46.63c6.84,0.82,26.359,1.41,30.68,7.7c2.881,4.18,2.471,9.391,8.73,8.28
		c9.5-1.681,16.449,0.351,21.958,9.58c3.871,6.47,3.711,11.56,11.131,14.05C77.259,88.5,76.718,84.08,71.359,77.65z M83.289,62.55
		c0.141-1.07,1.471-2.26,1.811-3.291c0.779,0.711,2.5,2.271,2.939,3.23C87.009,62.56,84.298,62.69,83.289,62.55z M85.75,58.45
		c0.141-1.06,1.01-2.16,1.35-3.19c0.779,0.71,1.42,2.03,1.859,2.99C87.929,58.32,86.769,58.589,85.75,58.45z M96.24,43.91
		c-1.441-0.02-7.65,1.43-9.201,6.99c-2.25,8.08-5.469,12.35-11.32,18.35c-3.119-4.8-7.289-7.67-12.869-8.32
		c2.91,0.341,16.76-7.129,20.35-15.699c4.711-11.26,17.67-12.67,18.141-3.1C101.339,43.14,99.048,43.95,96.24,43.91z"/>
</g>
</svg>
