<?xml version="1.0" encoding="utf-8"?>
<!-- Generator: Adobe Illustrator 16.0.0, SVG Export Plug-In . SVG Version: 6.00 Build 0)  -->
<!DOCTYPE svg PUBLIC "-//W3C//DTD SVG 1.1//EN" "http://www.w3.org/Graphics/SVG/1.1/DTD/svg11.dtd">
<svg version="1.1" id="Layer_1" xmlns="http://www.w3.org/2000/svg" xmlns:xlink="http://www.w3.org/1999/xlink" x="0px" y="0px"
	 width="117.879px" height="117.87px" viewBox="0 0 117.879 117.87" enable-background="new 0 0 117.879 117.87"
	 xml:space="preserve">
<g>
	<path fill="#F3C244" d="M58.94,0C26.39,0,0,26.38,0,58.93c0,32.549,26.39,58.94,58.94,58.94s58.939-26.391,58.939-58.94
		C117.879,26.38,91.49,0,58.94,0z M66.23,39.21C66.7,40.03,73,51.36,74.129,52.9c-7.969-0.44-12.83,3.93-19.459-0.76
		c4.09-0.51-3.67-6.28-5.84-8.7c4.819,0.06-2.621-4.53-5.44-8.06C50.68,36.42,63.14,33.83,66.23,39.21z M25.03,41.37
		c1.18,1.81,2.35,3.62,3.53,5.43c-1.41-0.27-3.08-0.34-4.42-0.85C24.18,44.46,24.75,42.83,25.03,41.37z M18.411,40.92
		c0.92,1.78,1.85,3.56,2.779,5.33c-1.35-0.12-2.95,0.03-4.24-0.37C17.25,44.21,17.93,42.55,18.411,40.92z M35.56,86.459
		c1.569-6.02,4.79-7.959,10.05-11.311c3.17-2.01,6.38,1.051,9.9,2.021C47.81,79.889,41.02,80.409,35.56,86.459z M71.36,77.649
		c-2.27-2.729-9.59-0.629-12.51-0.879c-4.59-0.391-5.2-1.27-9.25-3.35c-8.79-4.512-6.27-7.631-9.74-15.851
		C37,50.8,20.959,50.15,14.85,46.63c6.84,0.82,26.359,1.41,30.68,7.7c2.881,4.18,2.471,9.39,8.73,8.28
		c9.5-1.68,16.449,0.35,21.959,9.58C80.09,78.659,79.93,83.75,87.35,86.239C77.26,88.5,76.719,84.079,71.36,77.649z M83.29,62.549
		c0.141-1.07,1.471-2.26,1.811-3.29c0.779,0.709,2.5,2.27,2.939,3.229C87.01,62.559,84.299,62.69,83.29,62.549z M85.75,58.45
		c0.14-1.061,1.01-2.16,1.35-3.19c0.779,0.71,1.42,2.03,1.859,2.99C87.93,58.319,86.77,58.59,85.75,58.45z M96.24,43.91
		c-1.44-0.02-7.649,1.43-9.2,6.99c-2.25,8.08-5.47,12.351-11.32,18.351C72.6,64.45,68.43,61.579,62.85,60.93
		c2.91,0.34,16.76-7.13,20.35-15.7c4.711-11.26,17.67-12.67,18.141-3.1C101.34,43.14,99.049,43.95,96.24,43.91z"/>
</g>
</svg>
