<?xml version="1.0" encoding="utf-8"?>
<!-- Generator: Adobe Illustrator 19.0.0, SVG Export Plug-In . SVG Version: 6.00 Build 0)  -->
<svg version="1.1" id="Capa_1" xmlns="http://www.w3.org/2000/svg" xmlns:xlink="http://www.w3.org/1999/xlink" x="0px" y="0px"
	 viewBox="-35 237.1 87.8 88" style="enable-background:new -35 237.1 87.8 88;" xml:space="preserve">
<style type="text/css">
	.st0{fill:#F9F9F9;}
</style>
<g>
	<path class="st0" d="M51.7,266.1l-4.4-4.4c-0.7-0.7-1.7-1.2-2.8-1.2c-1,0-2,0.4-2.8,1.2l-0.6,0.6c-5.8-3.9-12.5-5.9-19.6-5.9
		c0,0,0,0-0.1,0c-4.4,0-8.6,0.8-12.6,2.3l7.7-7.7c1,0.5,2,0.7,3.1,0.7c1.9,0,3.8-0.8,5.2-2.1c1.4-1.4,2.1-3.2,2.1-5.2
		s-0.8-3.8-2.1-5.2c-1.4-1.4-3.2-2.1-5.2-2.1s-3.8,0.8-5.2,2.1c-1.4,1.4-2.1,3.2-2.1,5.2c0,1.1,0.3,2.2,0.7,3.1l-13.8,13.8l-0.5-0.5
		c-0.7-0.7-1.7-1.2-2.8-1.2s-2,0.4-2.8,1.2l-4.4,4.4c-0.7,0.7-1.2,1.7-1.2,2.8s0.4,2,1.2,2.8l0.5,0.5l-13.8,13.8
		c-1-0.5-2-0.7-3.1-0.7c-1.9,0-3.8,0.8-5.2,2.1c-2.9,2.9-2.9,7.5,0,10.3c1.4,1.4,3.2,2.1,5.2,2.1s3.8-0.8,5.2-2.1
		c2.2-2.2,2.7-5.6,1.4-8.3l7.7-7.7c-1.5,4-2.3,8.3-2.3,12.7c0,7.1,2.1,13.8,5.9,19.6l-0.7,0.7c-1.5,1.5-1.5,4,0,5.6l4.4,4.4
		c0.7,0.7,1.7,1.2,2.8,1.2c1,0,2-0.4,2.8-1.2l4.4-4.4c1.5-1.5,1.5-4,0-5.6l-4.4-4.4c-0.7-0.7-1.7-1.2-2.8-1.2c-1,0-2,0.4-2.8,1.2
		l-0.1,0.1c-6.3-10.3-6.1-23.5,0.8-33.5c0.5,0.2,0.9,0.3,1.4,0.3c1,0,2-0.4,2.8-1.2l4.4-4.4c1.1-1.1,1.4-2.8,0.9-4.2
		c10-6.9,23.3-7.2,33.5-0.8l-0.3,0.3c-1.5,1.5-1.5,4,0,5.6l4.4,4.4c0.7,0.7,1.7,1.2,2.8,1.2c1,0,2-0.4,2.8-1.2l4.4-4.4
		C53.2,270.1,53.2,267.7,51.7,266.1z M-0.3,316.8l-3.1,3.1l-3.1-3.1l3.1-3.1L-0.3,316.8z M17.9,242.7c0.5-0.5,1.1-0.7,1.7-0.7
		c0.6,0,1.3,0.3,1.7,0.7s0.7,1.1,0.7,1.7s-0.3,1.3-0.7,1.7s-1.1,0.7-1.7,0.7c-0.6,0-1.3-0.3-1.7-0.7l0,0l0,0
		c-0.5-0.5-0.7-1.1-0.7-1.7S17.5,243.2,17.9,242.7z M-26,293.5c-0.5,0.5-1.1,0.7-1.7,0.7s-1.3-0.3-1.7-0.7c-1-1-1-2.5,0-3.4
		c0.5-0.5,1.1-0.7,1.7-0.7s1.3,0.3,1.7,0.7C-25.1,291-25.1,292.6-26,293.5z M-4,271.2l-3.1-3.1L-4,265l1.5,1.5l0,0l0,0l1.5,1.5
		L-4,271.2z M44.5,272l-3.1-3.1l3.1-3.1l3.1,3.1L44.5,272z"/>
</g>
</svg>
