<?xml version="1.0" encoding="utf-8"?>
<!-- Generator: Adobe Illustrator 19.0.0, SVG Export Plug-In . SVG Version: 6.00 Build 0)  -->
<svg version="1.1" id="Layer_1" xmlns="http://www.w3.org/2000/svg" xmlns:xlink="http://www.w3.org/1999/xlink" x="0px" y="0px"
	 viewBox="-595 356 89 89" style="enable-background:new -595 356 89 89;" xml:space="preserve">
<style type="text/css">
	.st0{fill:#FFFFFF;stroke:#000000;stroke-miterlimit:10;}
	.st1{fill:#FFFFFF;}
</style>
<path id="XMLID_5_" class="st0" d="M-202.5,759.7"/>
<g>
	<path class="st1" d="M-574.8,387c0.5,0,0.9-0.2,1.3-0.5c0.9-0.7,1-2,0.2-2.9c-2.1-2.5-3.3-5.7-3.3-9c0-7.7,6.3-14,14-14
		s14,6.3,14,14c0,2.2-0.5,4.2-1.4,6.1c-0.5,1-0.1,2.2,0.9,2.7c1,0.5,2.2,0.1,2.7-0.9c1.2-2.5,1.8-5.2,1.8-7.9
		c0-10-8.1-18.1-18.1-18.1c-10,0-18.1,8.1-18.1,18.1c0,4.3,1.5,8.4,4.3,11.7C-576,386.7-575.4,387-574.8,387z"/>
	<path class="st1" d="M-524,404.9c-1.3-7.8-6.9-8.9-9.4-9c-0.7,0-1.3-0.4-1.7-1c-1.8-2.9-4.3-3.6-6.4-3.6c-1,0-1.8,0.2-2.6,0.3
		c-0.2,0.1-0.4,0.1-0.6,0.1c-0.7,0-1.5-0.3-1.9-1c-1.8-2.5-4.2-3.2-6.2-3.2c-0.5,0-1.1,0-1.5,0.1c-0.1,0-0.3,0-0.4,0
		c-1.3,0-2.4-1-2.4-2.4l0-14.4c0-3.7-2.8-5.6-5.6-5.6c-2.8,0-5.6,1.9-5.6,5.6c0,6.3,0,25.1,0,30.8c0,1-0.6,1.8-1.5,2.2
		c-11.1,4.6,2.6,25.5,5.1,29c0.2,0.3,0.4,0.8,0.4,1.2l0.6,8.1c0.1,1.2,1.1,2.3,2.4,2.3c0,0,0,0,0,0l26.8-0.1c1.2,0,2.2-0.9,2.4-2.1
		l1.1-8.3c0-0.4,0.2-0.7,0.4-1C-523.4,421.8-522.8,412.1-524,404.9z"/>
</g>
</svg>
