<?xml version="1.0" encoding="utf-8"?>
<!-- Generator: Adobe Illustrator 19.0.0, SVG Export Plug-In . SVG Version: 6.00 Build 0)  -->
<svg version="1.1" id="Capa_1" xmlns="http://www.w3.org/2000/svg" xmlns:xlink="http://www.w3.org/1999/xlink" x="0px" y="0px"
	 viewBox="-476.2 237.3 49.8 88" style="enable-background:new -476.2 237.3 49.8 88;" xml:space="preserve">
<style type="text/css">
	.st0{fill:#F9F9F9;}
</style>
<g>
	<path class="st0" d="M-432.8,237.3h-37c-3.5,0-6.4,2.9-6.4,6.4v75.2c0,3.5,2.9,6.4,6.4,6.4h37c3.5,0,6.4-2.9,6.4-6.4v-75.2
		C-426.4,240.2-429.2,237.3-432.8,237.3z M-460.4,241.2h18.3c0.5,0,0.8,0.7,0.8,1.5c0,0.9-0.4,1.5-0.8,1.5h-18.3
		c-0.5,0-0.8-0.7-0.8-1.5C-461.2,241.9-460.9,241.2-460.4,241.2z M-451.3,319c-2.3,0-4.1-1.8-4.1-4.1c0-2.3,1.8-4.1,4.1-4.1
		c2.2,0,4.1,1.8,4.1,4.1S-449,319-451.3,319z M-431.2,304.9h-40.2v-56.8h40.2C-431.2,248.1-431.2,304.9-431.2,304.9z"/>
</g>
</svg>
