<?xml version="1.0" encoding="utf-8"?>
<!-- Generator: Adobe Illustrator 19.0.0, SVG Export Plug-In . SVG Version: 6.00 Build 0)  -->
<svg version="1.1" id="Layer_1" xmlns="http://www.w3.org/2000/svg" xmlns:xlink="http://www.w3.org/1999/xlink" x="0px" y="0px"
	 viewBox="0 0 37.1 37.1" style="enable-background:new 0 0 37.1 37.1;" xml:space="preserve">
<style type="text/css">
	.st0{fill:none;stroke:#F9F9F9;stroke-miterlimit:10;}
</style>
<line id="XMLID_2_" class="st0" x1="20.4" y1="-24.3" x2="-23.8" y2="19.8"/>
<line id="XMLID_16_" class="st0" x1="22.9" y1="-21.8" x2="-21.3" y2="22.3"/>
<line id="XMLID_17_" class="st0" x1="25.3" y1="-19.4" x2="-18.8" y2="24.8"/>
<line id="XMLID_18_" class="st0" x1="27.8" y1="-16.9" x2="-16.3" y2="27.2"/>
<line id="XMLID_19_" class="st0" x1="30.3" y1="-14.4" x2="-13.9" y2="29.7"/>
<line id="XMLID_20_" class="st0" x1="32.8" y1="-12" x2="-11.4" y2="32.2"/>
<line id="XMLID_21_" class="st0" x1="35.2" y1="-9.5" x2="-8.9" y2="34.7"/>
<line id="XMLID_22_" class="st0" x1="37.7" y1="-7" x2="-6.4" y2="37.1"/>
<line id="XMLID_23_" class="st0" x1="40.2" y1="-4.5" x2="-4" y2="39.6"/>
<line id="XMLID_24_" class="st0" x1="42.6" y1="-2.1" x2="-1.5" y2="42.1"/>
<line id="XMLID_25_" class="st0" x1="45.1" y1="0.4" x2="1" y2="44.6"/>
<line id="XMLID_26_" class="st0" x1="47.6" y1="2.9" x2="3.4" y2="47"/>
<line id="XMLID_27_" class="st0" x1="50.1" y1="5.4" x2="5.9" y2="49.5"/>
<line id="XMLID_28_" class="st0" x1="52.5" y1="7.8" x2="8.4" y2="52"/>
<line id="XMLID_29_" class="st0" x1="55" y1="10.3" x2="10.9" y2="54.5"/>
<line id="XMLID_30_" class="st0" x1="57.5" y1="12.8" x2="13.3" y2="56.9"/>
<line id="XMLID_31_" class="st0" x1="60" y1="15.3" x2="15.8" y2="59.4"/>
<line id="XMLID_32_" class="st0" x1="62.4" y1="17.7" x2="18.3" y2="61.9"/>
</svg>
